<?xml version="1.0" encoding="UTF-8"?>
<svg width="18px" height="16px" viewBox="0 0 18 16" version="1.1" xmlns="http://www.w3.org/2000/svg" xmlns:xlink="http://www.w3.org/1999/xlink">
    <!-- Generator: Sketch 52.4 (67378) - http://www.bohemiancoding.com/sketch -->
    <title>问题</title>
    <desc>Created with Sketch.</desc>
    <g id="Page-1" stroke="none" stroke-width="1" fill="none" fill-rule="evenodd">
        <g id="问题" fill="#0084FF">
            <g id="Group" transform="translate(0.234378, 0.652348)">
                <polygon id="Path" points="6.40449964 6.83848452 8.28653308 6.83848452 8.28653308 8.95469792 6.40449964 8.95469792"></polygon>
                <path d="M14.7125171,10.6476686 L14.7125171,2.4492216 C14.7125171,1.0957044 13.6168127,0 12.2632955,0 L2.46640912,0 C1.11289192,0 0.01718752,1.0957044 0.01718752,2.4492216 L0.01718752,12.246108 C0.01718752,13.5996252 1.11289192,14.6953296 2.46640912,14.6953296 L17.6601768,14.6953296 L14.7125171,10.6476686 Z M4.23027836,12.0398578 L3.28066788,12.0398578 L3.28066788,4.61484912 L4.23027836,4.61484912 L4.23027836,12.0398578 Z M4.11211416,3.27207412 L4.9736386,2.8896518 C5.4140688,3.41816804 5.80723332,4.0068406 6.15957748,4.64277884 L5.3281312,5.07461528 C4.95430264,4.38926292 4.55254436,3.7919966 4.11211416,3.27207412 Z M5.47422512,5.94688192 L9.2168076,5.94688192 L9.2168076,9.84630052 L5.47422512,9.84630052 L5.47422512,5.94688192 Z M11.4511852,10.815247 C11.4511852,11.5800916 11.0193488,11.9711077 10.1771603,11.9711077 L9.17813568,11.9711077 L8.94395572,11.098841 L9.99239444,11.118177 C10.3254026,11.118177 10.5015747,10.9312627 10.5015747,10.5703248 L10.5015747,4.38926292 L6.79766416,4.38926292 L6.79766416,3.48691812 L11.4511852,3.48691812 L11.4511852,10.815247 Z" id="Shape" fill-rule="nonzero"></path>
            </g>
        </g>
    </g>
</svg>