<?xml version="1.0" standalone="no"?><!DOCTYPE svg PUBLIC "-//W3C//DTD SVG 1.1//EN" "http://www.w3.org/Graphics/SVG/1.1/DTD/svg11.dtd"><svg t="1543978843501" class="icon" style="" viewBox="0 0 1024 1024" version="1.1" xmlns="http://www.w3.org/2000/svg" p-id="1435" xmlns:xlink="http://www.w3.org/1999/xlink" width="200" height="200"><defs><style type="text/css"></style></defs><path d="M812.8 648c-24.8-16.8-49.6-32.8-72-44.8-36-18.4-51.2-20.8-59.2-20.8-16.8 0-32 8.8-44 26.4-8 11.2-13.6 25.6-20 38.4-4 8.8-10.4 23.2-14.4 28.8-8-1.6-28-10.4-60.8-32.8-31.2-20.8-64-48-89.6-72.8-24.8-25.6-52-58.4-72.8-89.6-22.4-32.8-31.2-52.8-32.8-60.8 5.6-4 20-10.4 28.8-14.4 13.6-5.6 27.2-12 38.4-20 17.6-12 26.4-26.4 26.4-44 0-8-2.4-24-20.8-59.2-12-22.4-27.2-47.2-44.8-72-12.8-18.4-32-44-52-65.6-23.2-24-40-34.4-56.8-34.4-39.2 0-85.6 57.6-99.2 75.2-16 24-55.2 82.4-55.2 138.4 0 52 34.4 118.4 63.2 165.6C213.6 552 267.2 620 325.6 680l19.2 19.2c60 58.4 127.2 112 190.4 150.4 47.2 28.8 113.6 63.2 165.6 63.2 55.2 0 113.6-39.2 136.8-56.8 17.6-13.6 75.2-59.2 75.2-99.2 0-16-10.4-33.6-34.4-56.8-21.6-20-47.2-39.2-65.6-52z" p-id="1436" fill="#ffffff"></path></svg>