<?xml version="1.0" standalone="no"?><!DOCTYPE svg PUBLIC "-//W3C//DTD SVG 1.1//EN" "http://www.w3.org/Graphics/SVG/1.1/DTD/svg11.dtd"><svg t="1543565278605" class="icon" style="" viewBox="0 0 1228 1024" version="1.1" xmlns="http://www.w3.org/2000/svg" p-id="1396" xmlns:xlink="http://www.w3.org/1999/xlink" width="239.84375" height="200"><defs><style type="text/css"></style></defs><path d="M368.640683 572.2112c0 75.3664 40.96 144.930133 107.52 182.613333a218.794667 218.794667 0 0 0 215.04 0A210.1248 210.1248 0 0 0 798.720683 572.2112c0-75.298133-40.96-144.861867-107.52-182.545067a218.794667 218.794667 0 0 0-215.04 0A210.1248 210.1248 0 0 0 368.640683 572.2112z" fill="#9b9b9b" p-id="1397"></path><path d="M1111.177216 134.7584H929.792683L855.450283 10.786133A22.1184 22.1184 0 0 0 836.608683 0H392.670549a22.1184 22.1184 0 0 0-18.909866 10.786133L299.008683 134.7584H117.419349a116.736 116.736 0 0 0-83.080533 34.816A119.466667 119.466667 0 0 0 0.000683 253.815467v651.264c0 31.5392 12.288 61.781333 34.338133 84.104533 21.981867 22.3232 51.882667 34.884267 83.080533 34.884267h993.757867c64.9216 0 117.623467-53.248 117.623467-118.9888v-651.264c0-65.7408-52.701867-118.9888-117.623467-118.9888zM614.400683 887.057067c-167.458133-0.682667-302.762667-138.4448-302.2848-307.882667C312.525483 409.873067 448.512683 272.861867 616.039083 273.066667c167.458133 0.273067 303.035733 137.762133 302.8992 307.2 0 81.578667-32.221867 159.744-89.361067 217.2928A301.6704 301.6704 0 0 1 614.400683 886.9888z" fill="#9b9b9b" p-id="1398"></path></svg>