<?xml version="1.0" standalone="no"?><!DOCTYPE svg PUBLIC "-//W3C//DTD SVG 1.1//EN" "http://www.w3.org/Graphics/SVG/1.1/DTD/svg11.dtd"><svg t="1543290223560" class="icon" style="" viewBox="0 0 1228 1024" version="1.1" xmlns="http://www.w3.org/2000/svg" p-id="1693" xmlns:xlink="http://www.w3.org/1999/xlink" width="239.84375" height="200"><defs><style type="text/css"></style></defs><path d="M507.153067 717.892267h248.6272c146.295467 0 268.219733-128.2048 268.219733-282.0096 0-153.873067-121.924267-282.0096-268.219733-282.0096h-341.333334c-146.2272 0-268.151467 128.136533-268.151466 282.0096 0 117.9648 68.266667 220.501333 170.666666 261.5296l53.6576 20.48 43.8272 87.176533 92.706134-87.176533z m53.589333 153.873066l-146.295467 138.4448c-19.456 20.48-48.7424 15.36-68.266666-5.12L341.333333 999.970133l-73.1136-153.873066C112.162133 784.5888 0 625.595733 0 435.882667 0 194.901333 185.275733 0 414.446933 0h341.333334c229.239467 0 414.5152 194.833067 414.5152 435.882667 0 240.981333-185.275733 435.882667-414.5152 435.882666H560.7424zM292.590933 435.882667c0-42.461867 32.768-76.936533 73.1136-76.936534 40.413867 0 73.181867 34.474667 73.181867 76.936534s-32.768 76.936533-73.181867 76.936533c-40.413867 0-73.1136-34.474667-73.1136-76.936533z m219.409067 0c0-42.461867 32.768-76.936533 73.1136-76.936534 40.413867 0 73.181867 34.474667 73.181867 76.936534s-32.768 76.936533-73.181867 76.936533c-40.3456 0-73.1136-34.474667-73.1136-76.936533z m219.409067 0c0-42.461867 32.768-76.936533 73.181866-76.936534 40.3456 0 73.1136 34.474667 73.1136 76.936534s-32.768 76.936533-73.1136 76.936533c-40.413867 0-73.181867-34.474667-73.181866-76.936533z" fill="#494C4C" p-id="1694"></path></svg>