<?xml version="1.0" standalone="no"?><!DOCTYPE svg PUBLIC "-//W3C//DTD SVG 1.1//EN" "http://www.w3.org/Graphics/SVG/1.1/DTD/svg11.dtd"><svg t="1543979088097" class="icon" style="" viewBox="0 0 1024 1024" version="1.1" xmlns="http://www.w3.org/2000/svg" p-id="1605" xmlns:xlink="http://www.w3.org/1999/xlink" width="200" height="200"><defs><style type="text/css"></style></defs><path d="M579.946038 578.973918l303.301289-301.561707L744.89937 140.701509 441.598081 442.365544zM367.205356 652.752673L560.401319 598.006995 422.565004 461.296293zM947.304887 162.59978l-86.467473-85.341861c-13.81433-13.81433-38.066154-13.302688-53.620066 1.739583l-41.545318 40.931348L904.019986 256.639552l41.545318-40.931348c14.939942-15.04227 15.553912-39.191766 1.739583-53.108424z" fill="#ffffff" p-id="1606"></path><path d="M848.660338 781.993405c0 47.275707-38.680124 85.955831-85.955831 85.955831H242.05776c-47.275707 0-86.467473-38.680124-86.467473-85.955831V261.244329c0-47.889677 38.680124-86.467473 86.467473-86.467473h342.493054l85.955831-89.332667H210.335965C130.724493 85.341861 66.769262 158.608974 66.769262 238.220446v574.880783c0 79.611472 64.569202 143.566703 143.566703 143.566703h581.225142c79.611472 0 147.045868-64.569202 147.045868-143.566703V352.930549L849.274308 439.398021l-0.61397 342.595384z" fill="#ffffff" p-id="1607"></path></svg>