<?xml version="1.0" standalone="no"?><!DOCTYPE svg PUBLIC "-//W3C//DTD SVG 1.1//EN" "http://www.w3.org/Graphics/SVG/1.1/DTD/svg11.dtd"><svg t="1543290209959" class="icon" style="" viewBox="0 0 1092 1024" version="1.1" xmlns="http://www.w3.org/2000/svg" p-id="1523" xmlns:xlink="http://www.w3.org/1999/xlink" width="213.28125" height="200"><defs><style type="text/css"></style></defs><path d="M545.518933 995.328a28.672 28.672 0 0 1-20.48-8.533333L87.2448 540.398933C-29.013333 416.768-29.013333 216.2688 86.8352 93.115733A289.5872 289.5872 0 0 1 299.4176 0c80.554667 0 156.0576 33.041067 212.514133 93.115733l33.5872 35.703467 33.655467-35.703467A289.5872 289.5872 0 0 1 791.688533 0c80.554667 0 156.125867 33.041067 212.5824 93.115733 115.848533 123.153067 115.848533 323.584 0 446.805334l-438.272 446.8736a28.672 28.672 0 0 1-20.48 8.6016z m8.6016-684.032L430.6944 186.504533c-67.3792-68.266667-176.7424-68.266667-244.1216 0-67.447467 68.266667-67.447467 178.858667 0 247.125334l366.250667 370.688 1.297066-1.297067 1.297067 1.365333 366.250667-370.688c67.447467-68.266667 67.447467-178.926933 0-247.125333-67.447467-68.266667-176.7424-68.266667-244.189867 0L554.120533 311.296z" fill="#494C4C" p-id="1524"></path></svg>