<?xml version="1.0" standalone="no"?><!DOCTYPE svg PUBLIC "-//W3C//DTD SVG 1.1//EN" "http://www.w3.org/Graphics/SVG/1.1/DTD/svg11.dtd"><svg t="1543290168513" class="icon" style="" viewBox="0 0 1092 1024" version="1.1" xmlns="http://www.w3.org/2000/svg" p-id="1353" xmlns:xlink="http://www.w3.org/1999/xlink" width="213.28125" height="200"><defs><style type="text/css"></style></defs><path d="M546.133333 996.693333a28.672 28.672 0 0 1-20.48-8.669866L87.722667 541.696C-28.4672 417.9968-28.4672 217.565867 87.381333 94.344533A289.5872 289.5872 0 0 1 299.963733 1.365333c80.554667 0 156.0576 33.041067 212.514134 93.047467L546.133333 130.116267l33.5872-35.771734A289.5872 289.5872 0 0 1 792.234667 1.365333c80.622933 0 156.125867 33.041067 212.5824 93.047467 115.848533 123.221333 115.848533 323.652267 0 446.8736l-438.272 446.805333a28.672 28.672 0 0 1-20.48 8.6016z" fill="#FF6750" p-id="1354"></path></svg>