<?xml version="1.0" standalone="no"?><!DOCTYPE svg PUBLIC "-//W3C//DTD SVG 1.1//EN" "http://www.w3.org/Graphics/SVG/1.1/DTD/svg11.dtd"><svg t="1543980301669" class="icon" style="" viewBox="0 0 1024 1024" version="1.1" xmlns="http://www.w3.org/2000/svg" p-id="2264" xmlns:xlink="http://www.w3.org/1999/xlink" width="200" height="200"><defs><style type="text/css"></style></defs><path d="M922.695244 648.265948c-74.971268 107.007771-208.456696 240.127485-307.199342 333.018715-29.25708 27.501655-66.486715 42.715337-104.594061 42.715337a153.745956 153.745956 0 0 1-103.643207-41.545054C294.326305 878.958025 147.016906 732.672624 85.211324 621.203149A394.385441 394.385441 0 0 1 36.571429 431.032128C36.571429 372.883681 49.151973 316.417516 73.947348 263.315916a429.932793 429.932793 0 0 1 101.887782-136.996278A479.15783 479.15783 0 0 1 326.947949 33.867265 514.705183 514.705183 0 0 1 511.998981 0.002194c64.146148 0 126.463729 11.410261 185.051032 33.865071 56.319879 21.503954 107.666055 52.882172 151.112819 92.37923a429.932793 429.932793 0 0 1 101.887782 136.996278c24.868518 53.174743 37.37592 109.714051 37.37592 167.862497 0 64.365576-7.753126 135.021425-64.658147 217.160678z m-341.868982-88.502667c20.918812-7.972554 40.009057-19.602244 56.173594-34.303927 16.091394-14.62854 28.891367-31.817075 37.814776-50.907319a146.577972 146.577972 0 0 0 0-124.781447 159.743658 159.743658 0 0 0-37.814776-50.980463c-16.164537-14.62854-35.254782-26.331372-56.173594-34.303926a191.414447 191.414447 0 0 0-68.827281-12.580545c-23.84452 0-46.957614 4.242277-68.827281 12.580545-20.918812 8.045697-40.009057 19.675386-56.173594 34.377069-16.164537 14.62854-28.891367 31.743932-37.814776 50.90732a146.651114 146.651114 0 0 0 0 124.781447c8.850267 19.163388 21.723382 36.425065 37.814776 50.980462 33.426214 30.134793 78.262689 46.957614 124.927733 46.884471 23.917663 0 47.030756-4.242277 68.900423-12.580545z" fill="#999999" p-id="2265"></path></svg>