<?xml version="1.0" standalone="no"?><!DOCTYPE svg PUBLIC "-//W3C//DTD SVG 1.1//EN" "http://www.w3.org/Graphics/SVG/1.1/DTD/svg11.dtd"><svg t="1543302924116" class="icon" style="" viewBox="0 0 1152 1024" version="1.1" xmlns="http://www.w3.org/2000/svg" p-id="1863" xmlns:xlink="http://www.w3.org/1999/xlink" width="225" height="200"><defs><style type="text/css"></style></defs><path d="M1131.008 236.096V100.672c0-36.096-29.248-65.344-65.344-65.344H86.336c-36.096 0-65.28 29.248-65.28 65.28v135.424a65.664 65.664 0 0 0 0 13.824v673.472c0 36.096 29.184 65.344 65.28 65.344h979.328c36.096 0 65.28-29.248 65.28-65.28V249.792a65.6 65.6 0 0 0 0-13.76zM1000.32 165.952v45.632L576 545.408 151.68 211.584v-45.632h848.64zM151.68 858.048V377.856l383.936 302.016a64.896 64.896 0 0 0 80.768 0l383.936-302.08v480.256H151.68z" fill="#000000" p-id="1864"></path></svg>