<?xml version="1.0" standalone="no"?><!DOCTYPE svg PUBLIC "-//W3C//DTD SVG 1.1//EN" "http://www.w3.org/Graphics/SVG/1.1/DTD/svg11.dtd"><svg class="icon" width="200px" height="200.00px" viewBox="0 0 1024 1024" version="1.1" xmlns="http://www.w3.org/2000/svg"><path fill="#38393c" d="M153.6 0h716.8A153.6 153.6 0 0 1 1024 153.6v716.8a153.6 153.6 0 0 1-153.6 153.6H153.6A153.6 153.6 0 0 1 0 870.4V153.6A153.6 153.6 0 0 1 153.6 0z m374.954667 245.191111a224.199111 224.199111 0 0 0-224.142223 224.256c0 123.790222 175.616 314.595556 175.616 314.595556 26.794667 31.800889 70.314667 31.800889 97.052445 0 0 0 175.729778-189.098667 175.729778-314.595556A224.199111 224.199111 0 0 0 528.497778 245.191111z m0 321.365333c-56.888889 0-103.765333-46.819556-103.765334-103.765333 0-56.888889 46.819556-103.822222 103.765334-103.822222 56.888889 0 103.822222 46.876444 103.822222 103.822222 0 58.595556-46.933333 103.765333-103.822222 103.765333z"  /></svg>