<?xml version="1.0" standalone="no"?><!DOCTYPE svg PUBLIC "-//W3C//DTD SVG 1.1//EN" "http://www.w3.org/Graphics/SVG/1.1/DTD/svg11.dtd"><svg class="icon" width="200px" height="200.00px" viewBox="0 0 1024 1024" version="1.1" xmlns="http://www.w3.org/2000/svg"><path fill="#38393c" d="M260.551111 36.579556v208.782222c0 46.250667 37.546667 83.797333 83.797333 83.797333h335.303112c46.307556 0 83.797333-37.546667 83.797333-83.797333V36.579556h148.309333c46.307556 0 83.797333 37.546667 83.797334 83.797333v819.825778c0 46.307556-37.546667 83.797333-83.797334 83.797333H112.241778C65.934222 1024 28.444444 986.453333 28.444444 940.202667V120.376889C28.444444 74.069333 65.991111 36.579556 112.241778 36.579556H260.551111zM457.159111 0h109.681778c23.096889 0 41.870222 18.773333 41.870222 41.870222v62.577778c0 23.096889-18.773333 41.813333-41.870222 41.813333H457.159111a41.870222 41.870222 0 0 1-41.870222-41.870222V41.870222C415.288889 18.773333 434.062222 0 457.159111 0z"  /></svg>