<?xml version="1.0" standalone="no"?><!DOCTYPE svg PUBLIC "-//W3C//DTD SVG 1.1//EN" "http://www.w3.org/Graphics/SVG/1.1/DTD/svg11.dtd"><svg class="icon" width="200px" height="180.12px" viewBox="0 0 1137 1024" version="1.1" xmlns="http://www.w3.org/2000/svg"><path fill="#38393c" d="M855.608889 479.118222c-125.610667 0-213.333333-87.722667-213.333333-213.390222A213.617778 213.617778 0 0 1 855.608889 52.337778a213.731556 213.731556 0 0 1 213.390222 213.504c0 125.553778-87.722667 213.333333-213.333333 213.333333z m-212.992 492.544a23.153778 23.153778 0 0 1-23.153778-23.096889l-23.893333-247.125333c0-27.477333 8.419556-119.296 116.337778-147.342222l3.299555-1.763556c11.946667-6.257778 67.811556-22.869333 136.760889-22.869333 69.176889 0 130.389333 16.782222 144.497778 23.096889a44.771556 44.771556 0 0 0 4.551111 1.991111c84.764444 32.142222 114.688 99.214222 114.688 146.887111l-23.950222 247.125333a22.812444 22.812444 0 0 1-22.869334 23.096889h-426.268444zM283.477333 479.118222c-125.610667 0-213.333333-87.722667-213.333333-213.390222A213.617778 213.617778 0 0 1 283.420444 52.337778a213.617778 213.617778 0 0 1 213.333334 213.504c0 125.553778-87.779556 213.333333-213.333334 213.333333zM70.542222 971.662222a23.153778 23.153778 0 0 1-23.096889-23.096889l-23.950222-247.239111c0-27.477333 8.419556-119.296 116.337778-147.399111l3.299555-1.706667c11.946667-6.257778 67.811556-22.869333 136.760889-22.869333 69.176889 0 130.389333 16.725333 144.497778 23.096889a44.771556 44.771556 0 0 0 4.608 1.991111c84.707556 32.142222 114.631111 99.214222 114.631111 146.887111l-23.893333 247.125334a22.812444 22.812444 0 0 1-22.869333 23.096888H70.428444v0.113778z"  /></svg>