<?xml version="1.0" standalone="no"?><!DOCTYPE svg PUBLIC "-//W3C//DTD SVG 1.1//EN" "http://www.w3.org/Graphics/SVG/1.1/DTD/svg11.dtd"><svg class="icon" width="200px" height="200.00px" viewBox="0 0 1024 1024" version="1.1" xmlns="http://www.w3.org/2000/svg"><path fill="#38393c" d="M514.32448 323.584a156.103111 156.103111 0 0 1 155.875556-156.046222 156.103111 156.103111 0 0 1 155.875555 156.046222 156.103111 156.103111 0 0 1-155.875555 155.989333 156.103111 156.103111 0 0 1-155.875556-155.989333m503.466667-228.977778c0-48.981333-39.822222-88.860444-87.153778-88.860444h-0.113778C929.04448 5.688889 775.103147 0 658.822258 0 525.019591 0 512.959147 6.485333 498.509369 20.935111l-206.961778 207.075556L25.990258 493.795556a89.429333 89.429333 0 0 0 0.284444 126.293333l377.571556 377.742222c16.952889 16.896 39.367111 26.168889 63.317333 26.168889 23.893333 0 46.136889-9.216 62.805333-25.941333l295.537778-295.594667 176.981334-177.208889c15.644444-15.587556 30.321778-30.321778 15.36-430.648889"  /></svg>