<?xml version="1.0" standalone="no"?><!DOCTYPE svg PUBLIC "-//W3C//DTD SVG 1.1//EN" "http://www.w3.org/Graphics/SVG/1.1/DTD/svg11.dtd"><svg class="icon" width="200px" height="200.00px" viewBox="0 0 1024 1024" version="1.1" xmlns="http://www.w3.org/2000/svg"><path fill="#38393c" d="M512 1024A512 512 0 1 1 512 0a512 512 0 0 1 0 1024z m0-342.983111l114.801778 50.574222a41.870222 41.870222 0 0 0 58.595555-42.552889l-12.629333-124.814222 83.512889-93.525333a41.870222 41.870222 0 0 0-22.357333-68.835556l-122.595556-26.624-63.146667-108.316444a41.870222 41.870222 0 0 0-72.362666 0l-63.146667 108.316444-122.595556 26.624a41.870222 41.870222 0 0 0-22.357333 68.835556l83.512889 93.525333-12.572444 124.814222a41.870222 41.870222 0 0 0 58.595555 42.552889L512 680.96z"  /></svg>