<?xml version="1.0" standalone="no"?><!DOCTYPE svg PUBLIC "-//W3C//DTD SVG 1.1//EN" "http://www.w3.org/Graphics/SVG/1.1/DTD/svg11.dtd"><svg class="icon" width="200px" height="200.00px" viewBox="0 0 1024 1024" version="1.1" xmlns="http://www.w3.org/2000/svg"><path fill="#38393c" d="M851.228444 179.2A469.560889 469.560889 0 0 0 512 35.214222c-128 0-249.571556 51.2-335.985778 140.8C86.414222 265.614222 35.214222 387.185778 35.214222 512c0 131.185778 54.385778 249.628444 140.8 335.985778 86.414222 86.414222 204.8 140.8 335.985778 140.8h355.214222c19.171556 0 38.4-15.985778 38.4-35.157334V783.928889c25.6-38.4 48.014222-79.985778 60.814222-121.571556 15.928889-48.014222 22.357333-96.028444 22.357334-147.228444 0-128-47.957333-249.571556-137.557334-335.985778zM540.785778 832a42.382222 42.382222 0 0 1-41.585778-41.585778c0-22.414222 19.228444-41.585778 41.585778-41.585778 22.414222 0 41.642667 19.171556 41.642666 41.528889-3.242667 22.471111-19.228444 41.642667-41.642666 41.642667z m169.642666-351.971556c-9.671111 22.357333-35.271111 51.2-70.428444 86.357334-28.785778 25.6-48.014222 48.014222-54.385778 64-6.428444 16.042667-12.8 25.6-12.8 64a35.498667 35.498667 0 0 1-35.214222 35.214222 35.498667 35.498667 0 0 1-35.214222-35.214222s0-35.157333 3.242666-54.385778c3.185778-15.985778 6.371556-28.785778 12.8-41.585778 6.371556-12.8 15.928889-28.785778 25.6-38.4 9.557333-12.8 25.6-28.785778 47.957334-44.828444 25.6-22.357333 41.642667-38.4 51.2-54.385778 9.614222-12.8 12.8-31.971556 9.614222-48.014222 0-28.785778-19.171556-54.385778-38.4-70.371556-22.414222-19.228444-48.014222-22.414222-79.985778-22.414222-64 0-108.828444 28.785778-121.628444 108.828444-3.185778 19.171556-15.985778 35.157333-31.971556 35.157334-19.228444 0-32.028444-19.171556-32.028444-38.4v-3.185778c6.428444-54.385778 25.6-99.214222 57.628444-128 31.971556-28.785778 76.8-44.771556 128-44.771556 54.385778 0 99.214222 15.928889 131.185778 47.957334 35.214222 32.028444 51.2 70.428444 51.2 118.442666 9.614222 19.171556 3.185778 41.528889-6.371556 64z"  /></svg>