<?xml version="1.0" standalone="no"?><!DOCTYPE svg PUBLIC "-//W3C//DTD SVG 1.1//EN" "http://www.w3.org/Graphics/SVG/1.1/DTD/svg11.dtd"><svg class="icon" width="200px" height="200.00px" viewBox="0 0 1024 1024" version="1.1" xmlns="http://www.w3.org/2000/svg"><path fill="#ffffff" d="M992.606882 378.363091a75.662175 75.662175 0 0 1-151.221966 0V258.36841l-147.433737 147.433738a378.310875 378.310875 0 0 1-582.977571 476.088111A378.208491 378.208491 0 0 1 586.85695 298.810304l147.433737-147.433738H614.398391A75.662175 75.662175 0 1 1 614.500776 0.154601h302.546315c41.772892 0 75.76456 33.786898 75.76456 75.662175v302.546315z m-772.38897 77.300328a226.88414 226.88414 0 1 0 320.873148 320.873148A226.88414 226.88414 0 0 0 220.217912 455.765803z" /></svg>