<?xml version="1.0" encoding="UTF-8"?>
<svg width="20px" height="21px" viewBox="0 0 20 21" version="1.1" xmlns="http://www.w3.org/2000/svg" xmlns:xlink="http://www.w3.org/1999/xlink">
    <!-- Generator: Sketch 52.4 (67378) - http://www.bohemiancoding.com/sketch -->
    <title>nav-me1</title>
    <desc>Created with Sketch.</desc>
    <defs>
        <linearGradient x1="-7.68710783%" y1="30.90384%" x2="112.206432%" y2="107.870971%" id="linearGradient-1">
            <stop stop-color="#151515" offset="0%"></stop>
            <stop stop-color="#AAAAAA" offset="100%"></stop>
        </linearGradient>
    </defs>
    <g id="Page-1" stroke="none" stroke-width="1" fill="none" fill-rule="evenodd">
        <g id="nav-me1" fill="url(#linearGradient-1)">
            <path d="M10,8.80645161 C15.5228475,8.80645161 20,13.2836041 20,18.8064516 L20,21 L0,21 L-3.55271368e-15,18.8064516 C-4.22906743e-15,13.2836041 4.4771525,8.80645161 10,8.80645161 Z M9.91482421,12.1935484 C6.79708772,12.1935484 4.26966292,14.7209732 4.26966292,17.8387097 L15.7303371,17.8387097 C15.7303371,14.7209732 13.2029123,12.1935484 10.0851758,12.1935484 L9.91482421,12.1935484 Z" id="Combined-Shape"></path>
            <path d="M10.1123596,11.2903226 C7.00963624,11.2903226 4.49438202,8.76289778 4.49438202,5.64516129 C4.49438202,2.5274248 7.00963624,0 10.1123596,0 C13.2150829,0 15.7303371,2.5274248 15.7303371,5.64516129 C15.7303371,8.76289778 13.2150829,11.2903226 10.1123596,11.2903226 Z M10.1123596,7.90322581 C11.3534489,7.90322581 12.3595506,6.89225589 12.3595506,5.64516129 C12.3595506,4.39806669 11.3534489,3.38709677 10.1123596,3.38709677 C8.87127023,3.38709677 7.86516854,4.39806669 7.86516854,5.64516129 C7.86516854,6.89225589 8.87127023,7.90322581 10.1123596,7.90322581 Z" id="Combined-Shape" style="mix-blend-mode: multiply;"></path>
        </g>
    </g>
</svg>