<?xml version="1.0" encoding="UTF-8"?>
<svg width="24px" height="24px" viewBox="0 0 24 24" version="1.1" xmlns="http://www.w3.org/2000/svg" xmlns:xlink="http://www.w3.org/1999/xlink">
    <!-- Generator: Sketch 52.4 (67378) - http://www.bohemiancoding.com/sketch -->
    <title>nav-discover2</title>
    <desc>Created with Sketch.</desc>
    <defs>
        <linearGradient x1="0%" y1="42.5054506%" x2="100%" y2="42.5054506%" id="linearGradient-1">
            <stop stop-color="#717171" offset="0%"></stop>
            <stop stop-color="#979797" offset="100%"></stop>
        </linearGradient>
    </defs>
    <g id="Page-1" stroke="none" stroke-width="1" fill="none" fill-rule="evenodd" opacity="0.498628162">
        <g id="nav-discover2">
            <path d="M12,23.8108262 C5.372583,23.8108262 -1.42108547e-14,18.4925117 -1.42108547e-14,11.9320383 C-1.42108547e-14,5.37156496 5.372583,0.0532504685 12,0.0532504685 C18.627417,0.0532504685 24,5.37156496 24,11.9320383 C24,18.4925117 18.627417,23.8108262 12,23.8108262 Z M12,19.6896141 C16.3281091,19.6896141 19.8367347,16.2164291 19.8367347,11.9320383 C19.8367347,7.64764756 16.3281091,4.17446259 12,4.17446259 C7.67189094,4.17446259 4.16326531,7.64764756 4.16326531,11.9320383 C4.16326531,16.2164291 7.67189094,19.6896141 12,19.6896141 Z" id="Combined-Shape" fill="#D8D8D8"></path>
            <path d="M8.04597203,17.476832 L13.1468677,15.2404892 C14.1389348,14.8055456 14.9224194,14.0010654 15.330982,12.9978458 L17.4068785,7.90051166 C17.6109342,7.39945576 17.370168,6.82784986 16.8691121,6.62379414 C16.6204956,6.52254472 16.3412216,6.52775824 16.0965573,6.63821626 L10.8342003,9.01400023 C9.84322012,9.46139573 9.06658657,10.2787206 8.67033736,11.2912378 L6.74041581,16.2226764 C6.54325058,16.7264835 6.79183295,17.2947339 7.29564008,17.4918991 C7.53783392,17.5866819 7.80777848,17.5812612 8.04597203,17.476832 Z" id="Path-2" fill="url(#linearGradient-1)"></path>
        </g>
    </g>
</svg>