<?xml version="1.0" standalone="no"?><!DOCTYPE svg PUBLIC "-//W3C//DTD SVG 1.1//EN" "http://www.w3.org/Graphics/SVG/1.1/DTD/svg11.dtd"><svg class="icon" width="200px" height="200.00px" viewBox="0 0 1024 1024" version="1.1" xmlns="http://www.w3.org/2000/svg"><path fill="#ffffff" d="M912.18944 114.37056c-140.14976-140.14464-367.36512-140.14976-507.51488-0.00512-118.17984 118.1952-136.69376 298.3168-55.53152 435.91168l-70.23104 70.23104-134.82496-134.83008L22.0672 607.69792l134.82496 134.82496-150.19008 150.1952 122.01472 122.01984 150.1952-150.1952 134.8352 134.8352 122.01472-122.01984-134.82496-134.8352 69.03808-69.03808c138.36288 85.55008 322.2016 68.40832 442.21952-51.60448 140.1344-140.14464 140.13952-367.36-0.00512-507.50976z m-98.31936 409.1904c-85.85216 85.84704-225.024 85.84704-310.87104 0-85.84704-85.84704-85.84192-225.024 0.00512-310.87104 85.84192-85.84704 225.01888-85.84704 310.86592 0 85.84704 85.85216 85.84704 225.024 0 310.87104z" /></svg>