<?xml version="1.0" encoding="UTF-8"?>
<svg width="31px" height="29px" viewBox="0 0 31 29" version="1.1" xmlns="http://www.w3.org/2000/svg" xmlns:xlink="http://www.w3.org/1999/xlink">
    <!-- Generator: Sketch 52.4 (67378) - http://www.bohemiancoding.com/sketch -->
    <title>oder-icon-get</title>
    <desc>Created with Sketch.</desc>
    <defs>
        <linearGradient x1="98.1919643%" y1="0%" x2="0%" y2="100%" id="linearGradient-1">
            <stop stop-color="#3CC2FF" offset="0%"></stop>
            <stop stop-color="#457CFF" offset="100%"></stop>
        </linearGradient>
    </defs>
    <g id="Page-1" stroke="none" stroke-width="1" fill="none" fill-rule="evenodd">
        <g id="oder-icon-get">
            <path d="M1.31914894,7.90909091 L29.6808511,7.90909091 L29.6808511,27.704 C29.6808511,28.419761 29.1006121,29 28.3848511,29 L2.61514894,29 C1.8993879,29 1.31914894,28.419761 1.31914894,27.704 L1.31914894,7.90909091 Z M3.29787234,9.88636364 L3.29787234,27.0227273 L27.7021277,27.0227273 L27.7021277,9.88636364 L3.29787234,9.88636364 Z" id="Combined-Shape" fill="#38393C"></path>
            <path d="M1.296,0 L29.704,2.22044605e-16 C30.419761,1.99773195e-15 31,0.580238964 31,1.296 L31,8.59036364 C31,9.30612467 30.419761,9.88636364 29.704,9.88636364 L1.296,9.88636364 C0.580238964,9.88636364 -8.00522974e-16,9.30612467 -8.8817842e-16,8.59036364 L0,1.296 C-8.76554461e-17,0.580238964 0.580238964,-3.12606041e-16 1.296,-4.4408921e-16 Z M2.06666667,1.97727273 L2.06666667,7.90909091 L28.9333333,7.90909091 L28.9333333,1.97727273 L2.06666667,1.97727273 Z" id="Combined-Shape" fill="#38393C"></path>
            <path d="M10.5531915,9.88636364 L21.106383,9.88636364 L21.106383,17.2858472 C21.106383,17.6437277 20.8162635,17.9338472 20.458383,17.9338472 C20.3370076,17.9338472 20.2180721,17.8997582 20.1151248,17.8354633 L15.8297872,15.1590909 L11.5444497,17.8354633 C11.2409051,18.0250396 10.8411517,17.93265 10.6515754,17.6291054 C10.5872805,17.5261581 10.5531915,17.4072226 10.5531915,17.2858472 L10.5531915,9.88636364 Z" id="Rectangle" fill="url(#linearGradient-1)"></path>
        </g>
    </g>
</svg>