<?xml version="1.0" encoding="UTF-8"?>
<svg width="31px" height="28px" viewBox="0 0 31 28" version="1.1" xmlns="http://www.w3.org/2000/svg" xmlns:xlink="http://www.w3.org/1999/xlink">
    <!-- Generator: Sketch 52.4 (67378) - http://www.bohemiancoding.com/sketch -->
    <title>oder-icon-pay</title>
    <desc>Created with Sketch.</desc>
    <defs>
        <linearGradient x1="98.1919643%" y1="0%" x2="0%" y2="100%" id="linearGradient-1">
            <stop stop-color="#3CC2FF" offset="0%"></stop>
            <stop stop-color="#457CFF" offset="100%"></stop>
        </linearGradient>
    </defs>
    <g id="Page-1" stroke="none" stroke-width="1" fill="none" fill-rule="evenodd">
        <g id="oder-icon-pay">
            <path d="M0,3.25581395 L29.704,3.25581395 C30.419761,3.25581395 31,3.83605292 31,4.55181395 L31,26.704 C31,27.419761 30.419761,28 29.704,28 L5.184,28 C2.32095586,28 3.50621785e-16,25.6790441 0,22.816 L0,3.25581395 Z M1.9787234,5.20930233 L1.9787234,22.1585116 C1.9787234,24.3057947 3.7194403,26.0465116 5.8667234,26.0465116 L29.0212766,26.0465116 L29.0212766,5.20930233 L1.9787234,5.20930233 Z" id="Combined-Shape" fill="#38393C"></path>
            <path d="M22.4263498,5.20930233 L0.000817879443,5.20930233 L0.000817879443,2.71021076 C-0.0350511611,0.903403585 1.10888822,6.6102946e-17 3.43263602,0 C9.33187395,0 15.2311119,0 21.1303498,0 C21.8461108,-1.31483169e-16 22.4263498,0.580238964 22.4263498,1.296 L22.4263498,5.20930233 Z M2.63070407,1.95348837 C2.2710768,1.95348837 1.97954128,2.24502388 1.97954128,2.60465116 C1.97954128,2.96427844 2.2710768,3.25581395 2.63070407,3.25581395 L20.4476264,3.25581395 L20.4476264,1.95348837 L2.63070407,1.95348837 Z" id="Combined-Shape" fill="#38393C"></path>
            <path d="M31,13.0232558 L22.3918852,13.0232558 C20.9533761,13.0232558 19.787234,14.1893979 19.787234,15.627907 C19.787234,17.0664161 20.9533761,18.2325581 22.3918852,18.2325581 L31,18.2325581 L31,20.1860465 L22.3666502,20.1860465 C19.8492592,20.1860465 17.8085106,18.1452979 17.8085106,15.627907 C17.8085106,13.110516 19.8492592,11.0697674 22.3666502,11.0697674 L31,11.0697674 L31,13.0232558 Z" id="Combined-Shape" fill="#38393C"></path>
            <path d="M23.0619574,13.6744186 L29.0212766,13.6744186 L29.0212766,18.2325581 L21.7659574,18.2325581 L21.7659574,14.9704186 C21.7659574,14.2546576 22.3461964,13.6744186 23.0619574,13.6744186 Z" id="Rectangle" fill="url(#linearGradient-1)"></path>
        </g>
    </g>
</svg>