<?xml version="1.0" encoding="UTF-8"?>
<svg width="32px" height="28px" viewBox="0 0 32 28" version="1.1" xmlns="http://www.w3.org/2000/svg" xmlns:xlink="http://www.w3.org/1999/xlink">
    <!-- Generator: Sketch 52.4 (67378) - http://www.bohemiancoding.com/sketch -->
    <title>oder-icon-tran</title>
    <desc>Created with Sketch.</desc>
    <defs>
        <linearGradient x1="98.1919643%" y1="0%" x2="0%" y2="100%" id="linearGradient-1">
            <stop stop-color="#3CC2FF" offset="0%"></stop>
            <stop stop-color="#457CFF" offset="100%"></stop>
        </linearGradient>
    </defs>
    <g id="Page-1" stroke="none" stroke-width="1" fill="none" fill-rule="evenodd">
        <g id="oder-icon-tran">
            <path d="M1.296,0 L18.544,0 C19.259761,1.77568735e-15 19.84,0.580238964 19.84,1.296 L19.84,23.4418605 L1.296,23.4418605 C0.580238964,23.4418605 1.32869215e-15,22.8616215 -6.66133815e-16,22.1458605 L0,1.296 C-8.76554461e-17,0.580238964 0.580238964,-5.34650646e-16 1.296,-6.66133815e-16 Z M1.92,1.95348837 L1.92,21.4883721 L17.92,21.4883721 L17.92,1.95348837 L1.92,1.95348837 Z" id="Combined-Shape" fill="#38393C"></path>
            <path d="M19.84,21.4883721 L30.08,21.4883721 L30.08,13.4857448 L24.2796962,9.11627907 L19.84,9.11627907 L19.84,7.1627907 L24.6423317,7.1627907 C24.9458723,7.1627907 25.2397832,7.2693351 25.4728128,7.46384495 L31.5344812,12.5235192 C31.8294805,12.7697551 32,13.1342037 32,13.518465 L32,22.1458605 C32,22.8616215 31.419761,23.4418605 30.704,23.4418605 L19.84,23.4418605 L19.84,21.4883721 Z" id="Combined-Shape" fill="#38393C"></path>
            <path d="M5.23131638,22.7906977 L7.25556197,22.7906977 C7.11734113,23.0867343 7.04,23.4178986 7.04,23.7674419 C7.04,25.0261373 8.04288216,26.0465116 9.28,26.0465116 C10.5171178,26.0465116 11.52,25.0261373 11.52,23.7674419 C11.52,23.4178986 11.4426589,23.0867343 11.304438,22.7906977 L13.3286836,22.7906977 C13.4014792,23.1042452 13.44,23.4312665 13.44,23.7674419 C13.44,26.1050192 11.5775046,28 9.28,28 C6.98249544,28 5.12,26.1050192 5.12,23.7674419 C5.12,23.4312665 5.15852076,23.1042452 5.23131638,22.7906977 Z" id="Combined-Shape" fill="#38393C"></path>
            <path d="M20.5913164,22.7906977 L22.615562,22.7906977 C22.4773411,23.0867343 22.4,23.4178986 22.4,23.7674419 C22.4,25.0261373 23.4028822,26.0465116 24.64,26.0465116 C25.8771178,26.0465116 26.88,25.0261373 26.88,23.7674419 C26.88,23.4178986 26.8026589,23.0867343 26.664438,22.7906977 L28.6886836,22.7906977 C28.7614792,23.1042452 28.8,23.4312665 28.8,23.7674419 C28.8,26.1050192 26.9375046,28 24.64,28 C22.3424954,28 20.48,26.1050192 20.48,23.7674419 C20.48,23.4312665 20.5185208,23.1042452 20.5913164,22.7906977 Z" id="Combined-Shape" fill="#38393C"></path>
            <path d="M3.208,2.60465116 L10.5374814,2.60465116 C10.8953619,2.60465116 11.1854814,2.89477064 11.1854814,3.25265116 C11.1854814,3.43023486 11.1126014,3.60003705 10.9838752,3.7223708 L3.65439385,10.6878778 C3.39497485,10.9344143 2.98481688,10.923971 2.73828037,10.664552 C2.62382213,10.5441129 2.56,10.3843095 2.56,10.2181581 L2.56,3.25265116 C2.56,2.89477064 2.85011948,2.60465116 3.208,2.60465116 Z" id="Path-21" fill="url(#linearGradient-1)"></path>
        </g>
    </g>
</svg>