<?xml version="1.0" encoding="UTF-8"?>
<svg width="29px" height="30px" viewBox="0 0 29 30" version="1.1" xmlns="http://www.w3.org/2000/svg" xmlns:xlink="http://www.w3.org/1999/xlink">
    <!-- Generator: Sketch 52.4 (67378) - http://www.bohemiancoding.com/sketch -->
    <title>oder-icon-write</title>
    <desc>Created with Sketch.</desc>
    <defs>
        <linearGradient x1="98.1919643%" y1="0%" x2="0%" y2="100%" id="linearGradient-1">
            <stop stop-color="#3CC2FF" offset="0%"></stop>
            <stop stop-color="#457CFF" offset="100%"></stop>
        </linearGradient>
    </defs>
    <g id="Page-1" stroke="none" stroke-width="1" fill="none" fill-rule="evenodd">
        <g id="oder-icon-write" transform="translate(0.000000, 1.000000)">
            <path d="M2.30681818,1.62790698 L29.3517273,1.62790698 C30.0674883,1.62790698 30.6477273,2.20814594 30.6477273,2.92390698 L30.6477273,25.076093 C30.6477273,25.7918541 30.0674883,26.372093 29.3517273,26.372093 L7.49081818,26.372093 C4.62777404,26.372093 2.30681818,24.0511372 2.30681818,21.188093 L2.30681818,1.62790698 Z M4.28409091,3.58139535 L4.28409091,20.5306047 C4.28409091,22.6778878 6.0248078,24.4186047 8.17209091,24.4186047 L28.6704545,24.4186047 L28.6704545,3.58139535 L4.28409091,3.58139535 Z" id="Combined-Shape" fill="#38393C" transform="translate(16.477273, 14.000000) rotate(-90.000000) translate(-16.477273, -14.000000) "></path>
            <path d="M0.648,18.8837209 L5.93181818,18.8837209 L5.93181818,28 C5.10479612,28 4.4784902,28 4.05290043,28 C1.11609755,28 6.74369651e-13,26.6976744 6.74369651e-13,23.4562987 C4.81435725e-13,22.1481061 2.88501799e-13,20.8399135 9.55678735e-14,19.5317209 C-5.26978564e-14,19.1738404 0.290119482,18.8837209 0.648,18.8837209 Z M1.97727273,20.8372093 L1.97727273,25.0578753 C1.97727273,25.6038841 2.4199003,26.0465116 2.96590909,26.0465116 C3.51191788,26.0465116 3.95454545,25.6038841 3.95454545,25.0578753 L3.95454545,20.8372093 L1.97727273,20.8372093 Z" id="Combined-Shape" fill="#38393C"></path>
            <path d="" id="Path-19" stroke="#979797" stroke-width="0.648"></path>
            <rect id="Rectangle" fill="url(#linearGradient-1)" x="9.22727273" y="5.86046512" width="13.8409091" height="5.20930233" rx="0.648"></rect>
            <rect id="Rectangle" fill="#38393C" x="9.22727273" y="13.6744186" width="15.1590909" height="2.60465116" rx="0.648"></rect>
            <rect id="Rectangle" fill="#38393C" x="9.22727273" y="18.8837209" width="7.90909091" height="2.60465116" rx="0.648"></rect>
        </g>
    </g>
</svg>