<?xml version="1.0" standalone="no"?><!DOCTYPE svg PUBLIC "-//W3C//DTD SVG 1.1//EN" "http://www.w3.org/Graphics/SVG/1.1/DTD/svg11.dtd"><svg t="1543804101778" class="icon" style="" viewBox="0 0 1146 1024" version="1.1" xmlns="http://www.w3.org/2000/svg" p-id="1690" xmlns:xlink="http://www.w3.org/1999/xlink" width="223.828125" height="200"><defs><style type="text/css"></style></defs><path d="M1019.45344 0H127.3856C57.344 0 0 55.54176 0 123.53536v776.92928C0 968.45824 57.344 1024 127.42656 1024H1019.4944C1089.536 1024 1146.88 968.45824 1146.88 900.46464V123.53536C1146.88 55.54176 1089.536 0 1019.45344 0zM281.92768 144.5888c64.3072 0 116.40832 50.50368 116.40832 112.76288 0 62.34112-52.10112 112.8448-116.40832 112.8448S165.4784 319.6928 165.4784 257.35168c0-62.2592 52.10112-112.76288 116.44928-112.76288zM127.42656 838.77888l223.0272-286.72 159.25248 185.30304 223.0272-277.9136 286.72 379.33056H127.3856z" fill="#999999" p-id="1691"></path></svg>