<?xml version="1.0" encoding="UTF-8"?>
<svg width="78px" height="78px" viewBox="0 0 78 78" version="1.1" xmlns="http://www.w3.org/2000/svg" xmlns:xlink="http://www.w3.org/1999/xlink">
    <!-- Generator: Sketch 52.4 (67378) - http://www.bohemiancoding.com/sketch -->
    <title>question</title>
    <desc>Created with Sketch.</desc>
    <defs>
        <linearGradient x1="0%" y1="42.5054506%" x2="100%" y2="42.5054506%" id="linearGradient-1">
            <stop stop-color="#0084FF" offset="0%"></stop>
            <stop stop-color="#45A5FF" offset="100%"></stop>
        </linearGradient>
        <circle id="path-2" cx="30" cy="30" r="30"></circle>
        <filter x="-27.5%" y="-17.5%" width="155.0%" height="155.0%" filterUnits="objectBoundingBox" id="filter-3">
            <feOffset dx="0" dy="6" in="SourceAlpha" result="shadowOffsetOuter1"></feOffset>
            <feGaussianBlur stdDeviation="4.5" in="shadowOffsetOuter1" result="shadowBlurOuter1"></feGaussianBlur>
            <feColorMatrix values="0 0 0 0 0   0 0 0 0 0.517647059   0 0 0 0 1  0 0 0 0.246971241 0" type="matrix" in="shadowBlurOuter1"></feColorMatrix>
        </filter>
    </defs>
    <g id="Page-1" stroke="none" stroke-width="1" fill="none" fill-rule="evenodd">
        <g id="question" transform="translate(9.000000, 3.000000)">
            <g id="Oval">
                <use fill="black" fill-opacity="1" filter="url(#filter-3)" xlink:href="#path-2"></use>
                <use fill="url(#linearGradient-1)" fill-rule="evenodd" xlink:href="#path-2"></use>
            </g>
            <g id="提问" transform="translate(18.000000, 18.000000)">
                <g id="Group">
                    <path d="M17.5329032,1.3636129 C21.8766452,3.62632258 24.4036129,8.3003871 23.9246452,13.156129 L23.9246452,13.1891613 C23.3630968,18.9037419 18.8211613,23.4126452 13.1065806,23.9246452 C12.7267097,23.9576774 12.3633548,23.9741935 12,23.9741935 C9.72077419,23.9741935 7.5076129,23.3135484 5.59174194,22.0913548 L5.55870968,22.0913548 L2.13987097,22.752 C1.84258065,22.8015484 1.52877419,22.7850323 1.248,22.6859355 C0.356129032,22.372129 -0.12283871,21.3811613 0.190967742,20.4892903 L1.28103226,17.3842581 L1.28103226,17.3347097 C0.455225806,15.6830968 0.0258064516,13.8663226 0.0258064516,12.0165161 C0.00929032258,5.39354839 5.36051613,0.0258064516 11.9669677,0.00929032258 L12.132129,0.00929032258 C14.0149677,0.0258064516 15.8647742,0.488258065 17.5329032,1.3636129 Z M14.9729032,9.57212903 C14.8242581,7.7883871 13.7507097,6.83045161 11.7522581,6.69832258 C9.81987097,6.83045161 8.82890323,7.60670968 8.72980645,9.02709677 C8.72980645,9.67122581 9.01058065,9.98503226 9.5556129,9.98503226 C9.8363871,9.98503226 10.084129,9.80335484 10.3153548,9.44 C10.6291613,8.89496774 11.0750968,8.59767742 11.620129,8.54812903 C12.4789677,8.58116129 12.9579355,9.09316129 13.0570323,10.0510968 C13.0570323,10.6456774 12.7101935,11.3063226 12.0330323,12.0330323 C11.2072258,12.9579355 10.8108387,13.8332903 10.8603871,14.7086452 C10.9099355,15.3032258 11.1576774,15.6005161 11.620129,15.6005161 C11.9339355,15.6005161 12.1156129,15.4188387 12.1651613,15.0554839 C12.1651613,14.3287742 12.5945806,13.5029677 13.4699355,12.5945806 C14.4774194,11.5375484 14.9729032,10.5300645 14.9729032,9.57212903 Z M12.5615484,17.252129 C12.4789677,16.7896774 12.1816774,16.5254194 11.6696774,16.4263226 C11.0750968,16.5254194 10.7612903,16.7896774 10.7117419,17.252129 C10.7612903,17.7971613 11.0750968,18.1109677 11.6696774,18.2100645 C12.1651613,18.1274839 12.4624516,17.7971613 12.5615484,17.252129 Z" id="Combined-Shape" fill="#FFFFFF"></path>
                    <path d="M23.9741935,11.6696774 C23.8585806,7.35896774 21.4307097,3.39509677 17.5329032,1.3636129 C17.2851613,1.23148387 17.0209032,1.11587097 16.7566452,1.00025806 C15.9969032,2.10683871 15.5509677,3.46116129 15.5509677,4.89806452 C15.5509677,8.72980645 18.656,11.8348387 22.4877419,11.8348387 C22.9997419,11.8348387 23.4952258,11.7852903 23.9741935,11.6696774 Z" id="Path" fill-opacity="0.159901495" fill="#0084FF"></path>
                </g>
            </g>
        </g>
    </g>
</svg>