<?xml version="1.0" encoding="UTF-8"?>
<svg width="97px" height="113px" viewBox="0 0 97 113" version="1.1" xmlns="http://www.w3.org/2000/svg" xmlns:xlink="http://www.w3.org/1999/xlink">
    <!-- Generator: Sketch 52.4 (67378) - http://www.bohemiancoding.com/sketch -->
    <title>right-local</title>
    <desc>Created with Sketch.</desc>
    <g id="Page-1" stroke="none" stroke-width="1" fill="none" fill-rule="evenodd" opacity="0.207705543">
        <g id="right-local" fill="#FFFFFF" fill-rule="nonzero">
            <path d="M89.9670898,71.5341631 C82.3927502,83.343584 68.9201133,98.0370272 58.9514422,108.283169 C55.9908698,111.325042 52.2398027,113 48.3861228,113 C44.5932467,113 40.8763838,111.371248 37.927224,108.417928 C26.5258042,96.997466 11.6507369,80.8484748 5.41413799,68.5539841 L5.41413894,68.553986 C2.16692772,62.0489847 0.483158471,54.8585459 0.50012699,47.5688482 C0.50012699,41.1500991 1.76948135,34.9200309 4.27399696,29.0480909 L4.27399434,29.048097 C6.69603893,23.3777543 10.1896834,18.2422971 14.5580639,13.9311765 L14.5580604,13.93118 C18.9513036,9.57173295 24.1318906,6.11003747 29.8169235,3.73510154 L29.816926,3.7351005 C35.7418898,1.253923 42.0927145,-0.015425888 48.5038977,0.0001414706 C54.9799041,0.0001414706 61.2659166,1.25540077 67.1869724,3.7351005 L67.1869697,3.73509941 C72.8706443,6.11055425 78.0498952,9.57221589 82.4420472,13.9311666 L82.4420493,13.9311687 C86.8108418,18.2434736 90.3045197,23.3802733 92.72613,29.0520374 C95.2344424,34.9201645 96.5,41.150244 96.5,47.5727947 C96.5,54.6692202 95.7171021,62.4741411 89.9707832,71.5343438 L89.9670898,71.5341631 Z M55.509517,61.6211891 L55.509516,61.6211895 C57.6404122,60.7479274 59.582238,59.4751818 61.2290086,57.8724174 C62.8773851,56.2723318 64.1769222,54.3979457 65.0816184,52.3102112 C66.0246452,50.1500955 66.4999884,47.8566357 66.4999884,45.498418 L66.4999887,45.4980976 C66.5026888,43.1548137 66.0198276,40.8360735 65.081484,38.6863267 L65.0814844,38.6863276 C64.1746667,36.6002561 62.8658744,34.7106795 61.2288746,33.1241214 L61.228874,33.1241208 C59.5821596,31.5212783 57.6403113,30.2485316 55.5093814,29.3753487 L55.5093802,29.3753482 C53.2875708,28.4624032 50.9060708,27.9950065 48.501851,28.0000402 C46.0752818,28.0000402 43.7177146,28.4610169 41.4904808,29.3753482 L41.4904823,29.3753476 C39.3595861,30.2486098 37.4177602,31.5213554 35.7709897,33.1241197 C34.1226131,34.7280114 32.8269058,36.5985914 31.9183799,38.686326 L31.9183808,38.686324 C30.9801843,40.8361154 30.4973715,43.1548444 30.5000108,45.4981172 C30.5000108,47.8601521 30.9791915,50.1497948 31.9183808,52.3137164 L31.9183807,52.3137162 C32.8251119,54.3998323 34.1339121,56.2894201 35.7709905,57.8759113 L35.7709895,57.8759103 C39.1797023,61.1663767 43.7459951,63.0048345 48.4980563,62.9999905 C50.9284551,62.9999905 53.2860223,62.5352033 55.5132562,61.6208653 L55.509517,61.6211891 Z" id="Shape"></path>
        </g>
    </g>
</svg>