<?xml version="1.0" standalone="no"?><!DOCTYPE svg PUBLIC "-//W3C//DTD SVG 1.1//EN" "http://www.w3.org/Graphics/SVG/1.1/DTD/svg11.dtd"><svg t="1543304835408" class="icon" style="" viewBox="0 0 1137 1024" version="1.1" xmlns="http://www.w3.org/2000/svg" p-id="2033" xmlns:xlink="http://www.w3.org/1999/xlink" width="222.0703125" height="200"><defs><style type="text/css"></style></defs><path d="M792.632889 707.299556c35.783111-35.384889 71.509333-35.384889 107.292444 0l178.062223 176.355555c35.783111 35.384889 35.783111 70.769778 0 106.154667-35.726222 35.441778-71.509333 35.441778-107.235556 0L792.632889 813.511111c-35.783111-35.384889-35.783111-70.826667 0-106.211555z m-299.52 118.840888c188.529778 0 341.333333-151.324444 341.333333-337.92 0-186.709333-152.803556-338.033778-341.333333-338.033777S151.722667 301.511111 151.722667 488.163556c0 186.652444 152.860444 337.92 341.333333 337.92z m0 150.186667C220.728889 976.327111 0 757.76 0 488.220444 0 218.510222 220.728889 0 493.112889 0c272.327111 0 493.112889 218.567111 493.112889 488.163556 0 269.653333-220.785778 488.163556-493.112889 488.163555z" fill="#000000" p-id="2034"></path></svg>