<?xml version="1.0" encoding="UTF-8"?>
<svg width="17px" height="17px" viewBox="0 0 17 17" version="1.1" xmlns="http://www.w3.org/2000/svg" xmlns:xlink="http://www.w3.org/1999/xlink">
    <!-- Generator: Sketch 52.4 (67378) - http://www.bohemiancoding.com/sketch -->
    <title>加</title>
    <desc>Created with Sketch.</desc>
    <g id="Page-1" stroke="none" stroke-width="1" fill="none" fill-rule="evenodd">
        <g id="加" fill="#FFFFFF">
            <g id="Group" transform="translate(0.252208, 0.252208)">
                <path d="M15.1515069,9.90598045 L1.56150487,9.90598045 C0.708713376,9.90598045 0.011414942,9.20868369 0.011414942,8.35589051 C0.011414942,7.50309902 0.708711694,6.80580058 1.56150487,6.80580058 L15.1515069,6.80580058 C16.0042984,6.80580058 16.7015969,7.50309733 16.7015969,8.35589051 C16.7015969,9.20868201 16.0043001,9.90598045 15.1515069,9.90598045 Z" id="Path"></path>
                <path d="M9.90598045,1.56148806 L9.90598045,15.1514901 C9.90598045,16.0042816 9.20868369,16.70158 8.35589051,16.70158 C7.50309902,16.70158 6.80580058,16.0042833 6.80580058,15.1514901 L6.80580058,1.56148806 C6.80580058,0.708696562 7.50309733,0.0113981281 8.35589051,0.0113981281 C9.20868201,0.0126129308 9.90598045,0.709910524 9.90598045,1.56148806 Z" id="Path"></path>
            </g>
        </g>
    </g>
</svg>