<?xml version="1.0" standalone="no"?><!DOCTYPE svg PUBLIC "-//W3C//DTD SVG 1.1//EN" "http://www.w3.org/Graphics/SVG/1.1/DTD/svg11.dtd"><svg t="1529378116339" class="icon" style="" viewBox="0 0 1024 1024" version="1.1" xmlns="http://www.w3.org/2000/svg" p-id="1873" xmlns:xlink="http://www.w3.org/1999/xlink" width="200" height="200"><defs><style type="text/css">@font-face { font-family: uc-nexus-iconfont; src: url("chrome-extension://pogijhnlcfmcppgimcaccdkmbedjkmhi/res/font_9qmmi8b8jsxxbt9.woff") format("woff"), url("chrome-extension://pogijhnlcfmcppgimcaccdkmbedjkmhi/res/font_9qmmi8b8jsxxbt9.ttf") format("truetype"); }
</style></defs><path d="M382.471088 52.226098h272.389425M642.06627 972.82303H382.471088M680.448998 1.049128H344.08836c-14.124844 0-25.588485 11.463641-25.588485 25.588485v237.768204h63.971213V52.226098h259.595182v212.179719h63.971213V26.637613c0-14.124844-11.463641-25.588485-25.588485-25.588485z m-38.382728 753.401769v218.372133H382.471088v-218.372133h-63.971213v243.960618c0 14.127403 11.463641 25.588485 25.588485 25.588485h336.360638c14.127403 0 25.588485-11.461083 25.588485-25.588485v-243.960618h-63.971213zM998.15563 318.75576h-35.823879v323.566395H706.037483v63.971213h292.118147c14.124844 0 25.588485-11.461083 25.588485-25.588485V344.344245c0-14.124844-11.463641-25.588485-25.588485-25.588485z m-679.655755 51.17697v-51.17697H26.381728c-14.124844 0-25.588485 11.463641-25.588485 25.588485v336.360638c0 14.127403 11.463641 25.588485 25.588485 25.588485h292.118147v-63.971213H62.205607V369.93273h256.294268z" p-id="1874"></path><path d="M372.235694 274.636094v200.664901a10.235394 10.235394 0 0 0 10.235394 10.235394h259.595182a10.235394 10.235394 0 0 0 10.235394-10.235394v-88.075566h43.500425v356.984956h-43.500425v-192.783647a10.235394 10.235394 0 0 0-10.235394-10.235394H382.471088a10.235394 10.235394 0 0 0-10.235394 10.235394v192.783647h-43.500425v-469.574291h43.500425m10.235394-10.235394h-63.971213v490.045079h63.971213v-203.019041h259.595182v203.019041h63.971213v-377.455745h-63.971213v98.310961H382.471088v-210.900295z" p-id="1875"></path><path d="M830.904173 375.050427h-98.351902c-12.392503 0-22.471808-9.183707-22.471807-20.470788v-20.470788c0-11.287081 10.079304-20.470788 22.471807-20.470788h98.351902c12.392503 0 22.471808 9.183707 22.471808 20.470788v20.470788c0 11.287081-10.079304 20.470788-22.471808 20.470788z m-98.351902-51.17697c-6.747684 0-12.236414 4.590574-12.236413 10.235394v20.470788c0 5.64482 5.491289 10.235394 12.236413 10.235394h98.351902c6.747684 0 12.236414-4.590574 12.236414-10.235394v-20.470788c0-5.64482-5.491289-10.235394-12.236414-10.235394h-98.351902z" p-id="1876"></path></svg>